<svg xmlns="http://www.w3.org/2000/svg" xmlns:xlink="http://www.w3.org/1999/xlink" width="44" zoomAndPan="magnify" viewBox="0 0 33 32.999998" height="44" preserveAspectRatio="xMidYMid meet" version="1.0"><defs><clipPath id="9f40d72110"><path d="M 9 1.261719 L 24 1.261719 L 24 12 L 9 12 Z M 9 1.261719 " clip-rule="nonzero"/></clipPath><clipPath id="c87a23f095"><path d="M 21 6 L 31.703125 6 L 31.703125 21 L 21 21 Z M 21 6 " clip-rule="nonzero"/></clipPath></defs><g clip-path="url(#9f40d72110)"><path fill="#f23005" d="M 13.789062 3.859375 C 13.789062 2.429688 14.925781 1.269531 16.328125 1.269531 C 17.730469 1.269531 18.863281 2.429688 18.863281 3.859375 C 18.863281 5.289062 17.730469 6.449219 16.328125 6.449219 C 14.925781 6.449219 13.789062 5.289062 13.789062 3.859375 Z M 21.707031 4.648438 C 19.511719 6.621094 17.628906 8.007812 16.328125 8.007812 C 15.027344 8.007812 13.144531 6.621094 10.949219 4.648438 C 10.007812 3.804688 8.636719 4.960938 9.269531 6.0625 L 13.339844 11.113281 C 14.242188 10.660156 15.253906 10.402344 16.328125 10.402344 C 17.398438 10.402344 18.414062 10.660156 19.3125 11.113281 L 23.382812 6.0625 C 24.015625 4.960938 22.644531 3.804688 21.707031 4.648438 Z M 21.707031 4.648438 " fill-opacity="1" fill-rule="nonzero"/></g><g clip-path="url(#c87a23f095)"><path fill="#04bfbf" d="M 28.070312 10.683594 C 29.40625 10.242188 30.835938 10.988281 31.269531 12.347656 C 31.703125 13.707031 30.972656 15.167969 29.640625 15.609375 C 28.308594 16.050781 26.875 15.308594 26.441406 13.949219 C 26.007812 12.585938 26.738281 11.125 28.070312 10.683594 Z M 29.78125 18.613281 C 27.265625 17.089844 25.394531 15.691406 24.992188 14.429688 C 24.589844 13.164062 25.300781 10.910156 26.457031 8.171875 C 26.953125 7 25.453125 6.027344 24.621094 6.980469 L 21.171875 12.492188 C 21.871094 13.222656 22.425781 14.128906 22.753906 15.167969 C 23.085938 16.210938 23.164062 17.273438 23.019531 18.289062 L 28.984375 20.675781 C 30.203125 20.949219 30.859375 19.261719 29.78125 18.613281 Z M 29.78125 18.613281 " fill-opacity="1" fill-rule="nonzero"/></g><path fill="#004aad" d="M 26.125 26.652344 C 26.945312 27.808594 26.695312 29.429688 25.5625 30.269531 C 24.429688 31.109375 22.839844 30.855469 22.015625 29.699219 C 21.195312 28.539062 21.445312 26.921875 22.578125 26.082031 C 23.710938 25.238281 25.300781 25.496094 26.125 26.652344 Z M 19.261719 30.761719 C 19.90625 27.851562 20.628906 25.601562 21.679688 24.820312 C 22.734375 24.039062 25.054688 24.035156 27.96875 24.308594 C 29.210938 24.429688 29.65625 22.671875 28.507812 22.160156 L 22.308594 20.515625 C 21.839844 21.421875 21.167969 22.238281 20.300781 22.878906 C 19.433594 23.523438 18.464844 23.925781 17.476562 24.097656 L 17.09375 30.625 C 17.214844 31.894531 18.988281 32.007812 19.261719 30.761719 Z M 19.261719 30.761719 " fill-opacity="1" fill-rule="nonzero"/><path fill="#f2b705" d="M 10.636719 29.699219 C 9.8125 30.855469 8.226562 31.113281 7.09375 30.269531 C 5.957031 29.429688 5.707031 27.808594 6.53125 26.652344 C 7.355469 25.496094 8.941406 25.238281 10.078125 26.082031 C 11.210938 26.921875 11.460938 28.539062 10.636719 29.699219 Z M 4.6875 24.308594 C 7.597656 24.035156 9.921875 24.039062 10.972656 24.820312 C 12.027344 25.601562 12.75 27.851562 13.390625 30.761719 C 13.664062 32.007812 15.441406 31.894531 15.5625 30.625 L 15.179688 24.097656 C 14.1875 23.925781 13.222656 23.523438 12.355469 22.878906 C 11.488281 22.238281 10.8125 21.421875 10.347656 20.515625 L 4.144531 22.160156 C 3 22.671875 3.441406 24.429688 4.6875 24.308594 Z M 4.6875 24.308594 " fill-opacity="1" fill-rule="nonzero"/><path fill="#f20574" d="M 3.015625 15.609375 C 1.683594 15.167969 0.953125 13.707031 1.386719 12.347656 C 1.820312 10.988281 3.25 10.242188 4.582031 10.683594 C 5.917969 11.125 6.644531 12.585938 6.210938 13.949219 C 5.78125 15.308594 4.347656 16.050781 3.015625 15.609375 Z M 6.199219 8.171875 C 7.355469 10.910156 8.066406 13.164062 7.664062 14.429688 C 7.261719 15.691406 5.386719 17.089844 2.871094 18.613281 C 1.796875 19.261719 2.449219 20.949219 3.671875 20.675781 L 9.636719 18.285156 C 9.492188 17.273438 9.566406 16.210938 9.898438 15.167969 C 10.230469 14.128906 10.78125 13.222656 11.484375 12.488281 L 8.035156 6.980469 C 7.203125 6.027344 5.703125 7 6.199219 8.171875 Z M 6.199219 8.171875 " fill-opacity="1" fill-rule="nonzero"/></svg>